<svg id="Layer_1" data-name="Layer 1" xmlns="http://www.w3.org/2000/svg" xmlns:xlink="http://www.w3.org/1999/xlink" viewBox="0 0 678.1 286.01"><defs><style>.cls-1{fill:#231f20;}.cls-2{fill:#fff;}.cls-3{fill:url(#linear-gradient);}.cls-4{fill:url(#linear-gradient-2);}.cls-5{fill:url(#linear-gradient-3);}.cls-6{fill:url(#linear-gradient-4);}.cls-7{fill:url(#linear-gradient-5);}.cls-8{fill:#552100;}</style><linearGradient id="linear-gradient" x1="164.5" y1="842.52" x2="164.5" y2="654.36" gradientTransform="translate(223.03 -552.26) rotate(-8.29) scale(0.93)" gradientUnits="userSpaceOnUse"><stop offset="0.01" stop-color="#552100"/><stop offset="0.49" stop-color="#572302"/><stop offset="0.66" stop-color="#5c2909"/><stop offset="0.79" stop-color="#663314"/><stop offset="0.89" stop-color="#744225"/><stop offset="0.97" stop-color="#86553b"/><stop offset="1" stop-color="#8d5d44"/></linearGradient><linearGradient id="linear-gradient-2" x1="140.04" y1="841.56" x2="140.04" y2="745.75" gradientTransform="translate(202.45 -595.37) scale(0.93)" xlink:href="#linear-gradient"/><linearGradient id="linear-gradient-3" x1="-176.51" y1="842.55" x2="-176.51" y2="654.4" xlink:href="#linear-gradient"/><linearGradient id="linear-gradient-4" x1="346.23" y1="772.88" x2="346.23" y2="700.89" xlink:href="#linear-gradient"/><linearGradient id="linear-gradient-5" x1="312.98" y1="696.45" x2="312.98" y2="676.09" xlink:href="#linear-gradient"/></defs><path class="cls-1" d="M34.9,280.45l0-.28-7.2-49.37,0-.22.21-.08,1.51-.59a15.55,15.55,0,0,0,5.59-3.36,10,10,0,0,0,3-6.82,6,6,0,0,0-.07-1c0-.15,0-.28,0-.43-9-61.49-9.51-65.13-9.53-65.25-.54-3.67-1.19-6.49-4.82-9.59-1.8-1.52-4.93-2.3-9.29-2.31h-2l0-.24L3.3,80.2l0-.28.29,0L95.13,66.54l.28,0,0,.28.35,2.4,2-.92A106.24,106.24,0,0,1,122,60a87.39,87.39,0,0,1,17.21-1.77,76.82,76.82,0,0,1,8.52.47,60.4,60.4,0,0,1,13.52,3.23l.64.23.61-.29a188.21,188.21,0,0,1,40.65-14,108.42,108.42,0,0,1,22-2.34,79.36,79.36,0,0,1,25.38,3.84c20.08,6.74,32.19,20.57,35,40l.11.77,2.16-1.5c5.41-3.8,12.78-6.79,20.75-8.42,3.58-.74,10.76-1.28,11.56-1.33l1.75-.13c-.59-4.1-6.41-44-6.41-44l0-.28.29,0,89.56-13,2-.29.29,0,0,.28.33,2.4,2-.92a106.93,106.93,0,0,1,24.2-8.28,87.78,87.78,0,0,1,17.16-1.76,75.32,75.32,0,0,1,8.57.49,58.57,58.57,0,0,1,13.51,3.22l.63.23.62-.29a188,188,0,0,1,40.65-14,109,109,0,0,1,22-2.33,79.56,79.56,0,0,1,25.39,3.84,55.76,55.76,0,0,1,16.56,8.8l.54.41,37.83-5.5L627,6.2A17.47,17.47,0,0,1,629.78,6a15.79,15.79,0,0,1,9.34,2.94c3.35,2.44,5.42,6.09,6.17,10.84l1.85,13.32,21.46-3.13.28,0,0,.29,9,61.49.22,3a25.84,25.84,0,0,1-5.44,15.38c-5.71,7.65-14.85,12.73-25.75,14.31l-29.4,4.35L627,193.91l0,.28-.29.05L347.38,234.93l-.28,0,0-.28-5.66-38.78-.57.24-1.37.51,0,.05c-3.89,1.61-12.77,3.34-20.34,3.34-1.19,0-2.33,0-3.38-.13l-2-.17c.6,4.19,5.67,39,5.67,39l0,.28-.28,0-284,41.36-.28,0Z"/><path class="cls-1" d="M31.06,286l0-.28c-.91-6.24-5.91-40.47-6.67-45.78l0-.22.22-.08a17.37,17.37,0,0,0,6.31-3.84,11.41,11.41,0,0,0,3.46-9.46l0-.41-9.52-65.31c-.56-3.82-1.35-7.28-5.51-10.83C17,148,13.47,147,8.63,147H8.38l0-.24C7.49,140.93,1,96.24,0,89.76l0-.27.28,0L54.6,81.53l33.25-4.84.28,0,.05.28L88.63,80l4.45-2.07a104.13,104.13,0,0,1,23.72-8.11,85.91,85.91,0,0,1,16.84-1.73,72.51,72.51,0,0,1,8.27.46A57.79,57.79,0,0,1,155,71.68l1.44.51,1.38-.66A186.2,186.2,0,0,1,198,57.66a106.75,106.75,0,0,1,21.64-2.29,77.44,77.44,0,0,1,24.73,3.73c19.3,6.48,30.94,19.74,33.66,38.37l.59,4,4.85-3.4a54.87,54.87,0,0,1,20-8.09c3.64-.75,11.23-1.29,11.3-1.29l3.92-.28c-.52-3.57-5.54-38-6.44-44.17l0-.27.28,0,31-4.51L400,31.19l.28,0,0,.28c.16,1.13.34,2.46.43,3.09l4.47-2.07A104.79,104.79,0,0,1,429,24.33a86.08,86.08,0,0,1,16.76-1.72,73.73,73.73,0,0,1,8.34.47,57.78,57.78,0,0,1,13.06,3.11l1.43.52,1.38-.66a186.16,186.16,0,0,1,40.19-13.88,106.78,106.78,0,0,1,21.65-2.29,77.38,77.38,0,0,1,24.72,3.73,54.13,54.13,0,0,1,16,8.47l1.22,1,48-7a17,17,0,0,1,2.55-.2,13.68,13.68,0,0,1,8.14,2.55,13.84,13.84,0,0,1,5.35,9.48l2.14,15.34,21.47-3.13.28,0,0,.28c1,6.87,8.66,59.49,8.66,59.49,1.79,12.33-8.88,27.48-29.26,30.45l-31.4,4.65c.64,4.37,8.5,58.52,9.47,65.13l0,.28-.28,0L343.54,240.48l-.28,0,0-.28c-.86-6-5.22-35.73-5.75-39.35l-4.32,1.79c-3.72,1.54-12.23,3.2-19.5,3.2-1.15,0-2.25,0-3.27-.13l-4.57-.38c.52,3.59,4.88,33.52,5.75,39.49l0,.28-.28,0L31.34,286l-.28,0Z"/><path class="cls-2" d="M515.76,4.6a185.47,185.47,0,0,0-40.11,13.86l-1.49.72-1.55-.56a57.12,57.12,0,0,0-13-3.11,80.69,80.69,0,0,0-25,1.25,104.3,104.3,0,0,0-23.68,8.1l-4.83,2.25s-.27-1.92-.48-3.49c-6.9,1-80.7,11.77-87.56,12.76.95,6.54,6.48,44.47,6.48,44.47l-4.23.3c-.07,0-7.67.55-11.27,1.29a54.45,54.45,0,0,0-19.89,8l-5.23,3.66-.65-4.5C280.57,71.15,269,58,249.79,51.52c-13.08-4.42-29.49-4.91-46.21-1.43a185.77,185.77,0,0,0-40.11,13.85l-1.49.72-1.56-.56a56.89,56.89,0,0,0-13-3.11,81,81,0,0,0-25,1.26,104.49,104.49,0,0,0-23.66,8.1L94,72.58s-.28-1.92-.5-3.46c-6.88,1-80.72,11.75-87.58,12.76.94,6.47,7.46,51.16,8.31,57,3.35,0,7.93.45,10.77,2.86,4.24,3.62,5.05,7.12,5.61,11l9.52,65.32.05.39a11.73,11.73,0,0,1-3.54,9.7,17.83,17.83,0,0,1-6.4,3.91c.77,5.31,5.75,39.54,6.66,45.78l280-40.78c-.92-6.36-5.8-39.85-5.8-39.85l4.93.41c7.92.64,18.53-1.35,22.64-3l4.67-2S348.12,226,349,232.35L624.4,192.24c-1-6.89-9.51-65.41-9.51-65.41l31.68-4.69c20.21-2.94,30.8-17.93,29-30.13l-8.67-59.49-21.74,3.17L643,20.07a13.65,13.65,0,0,0-5.24-9.29,14,14,0,0,0-10.49-2.3l-48.09,7-1.32-1A53.42,53.42,0,0,0,562,6C548.9,1.62,532.49,1.12,515.76,4.6Z"/><path class="cls-3" d="M602.24,149a12.74,12.74,0,0,1-6.15-8.8L582.53,47.11c-2.19-13.9-10.68-23.72-24.6-28.38-10.85-3.66-24.7-4-39-1-11.56,2.42-29.67,8.12-44.11,16.34a41.12,41.12,0,0,0-16.37-5.25,67.05,67.05,0,0,0-20.8,1.1,89.84,89.84,0,0,0-33.68,14.24l-8,5.69-1.59-11-60.37,8.8,4.67,32.09c7.69.16,15,5,16,11.17l12.06,82.72a12.9,12.9,0,0,1-3.38,10.18,17.07,17.07,0,0,1-6.4,4.64l4.07,28,74.48-10.85-4.09-28A17.25,17.25,0,0,1,423.9,175a12.85,12.85,0,0,1-6.14-8.79l-12.1-83a10.2,10.2,0,0,1,1.86-7.62c2.78-4.4,8.45-8.08,16.49-9.24,11.19-1.61,18.68,4.54,19.52,10l18.28,125.5,62.8-9.14-4.07-28a17.12,17.12,0,0,1-7.48-2.63,12.93,12.93,0,0,1-6.14-8.79L494.87,70.39a10.13,10.13,0,0,1,1.84-7.59c2.77-4.39,8.45-8.1,16.51-9.26,11.17-1.59,18.66,4.55,19.51,10L551,188.77l62.78-9.14-4.07-28A16.91,16.91,0,0,1,602.24,149Z"/><path class="cls-2" d="M286,108.28a23.84,23.84,0,0,0-1.44,12.12v.08a26.35,26.35,0,0,0,7.89,15.31c-7.36,6.46-13.71,15-12.31,27.05,0,.29.07.6.11.9A27.8,27.8,0,0,0,291.08,182c8.25,6.37,20.17,9,32.7,7.23,8.66-1.2,16.82-4.87,24.23-9.92l5.81,4.49L385,179.28,377,125l-31,4.52L345,133.43a48.93,48.93,0,0,1-2,4.57c-1.44-1.08-1.55-1.17-2.93-2.24,6.47-6.23,11.86-14.2,10.34-24.58v-.08c-2.27-15.21-18.34-24.65-37.38-22C300.08,91,290,98.13,286,108.28Z"/><path class="cls-4" d="M316.2,107.21c5.46-.8,10.08,1.79,10.73,6.33s-4,8.61-9.87,12.51c-3.41-2.49-8.81-6.3-9.27-9.44C307.11,112.09,310.75,108,316.2,107.21ZM321.14,168c-7.56,1.08-14.22-1.63-15.22-8.31-.59-4,3.61-8.25,9.82-13.06l19,14.6C330.5,164.8,325.88,167.3,321.14,168Zm54.79-7.37-11.49,1.68L360,158.85a55.37,55.37,0,0,0,4.67-9c.4-1,.78-2,1.15-3.1l7.92-1.15-2-13.54-20.79,3a55.12,55.12,0,0,1-5.43,12.75L330.2,136.05c8.36-6.52,15.53-14.12,14.05-24-1.67-11.17-14-19-30.33-16.71-11.68,1.66-19.29,8-22.14,15.26a17.69,17.69,0,0,0-1.07,9c1.1,7.38,4.85,11.35,11.33,16.47-9.21,6.68-17.06,14.54-15.74,26.09,1.73,15,17.73,23.61,36.62,20.93a51.75,51.75,0,0,0,25.53-11.28l7.09,5.47L377.88,174Z"/><path class="cls-5" d="M290,194.51a12.81,12.81,0,0,1-6.14-8.8l-13.57-93.1c-2.18-13.92-10.68-23.72-24.59-28.4-10.84-3.63-24.7-4-39-1-11.58,2.4-29.67,8.12-44.11,16.34a41.42,41.42,0,0,0-16.41-5.26,67.51,67.51,0,0,0-20.77,1.1A90,90,0,0,0,91.74,89.64l-8,5.71-1.59-11-60.37,8.8,4.67,32.08c7.69.16,15,5.06,16,11.18l12,82.71a12.81,12.81,0,0,1-3.38,10.18A16.82,16.82,0,0,1,44.7,234l4.07,28,74.47-10.85-4.08-28a17.12,17.12,0,0,1-7.46-2.62,12.81,12.81,0,0,1-6.14-8.8l-12.1-83A10.31,10.31,0,0,1,95.32,121c2.78-4.38,8.44-8.06,16.5-9.22,11.18-1.6,18.68,4.55,19.52,10l18.28,125.5,62.79-9.14-4.07-28a17.14,17.14,0,0,1-7.48-2.61,12.82,12.82,0,0,1-6.13-8.8l-12.06-82.81a10.2,10.2,0,0,1,1.83-7.61c2.8-4.39,8.46-8.09,16.53-9.25,11.16-1.6,18.64,4.54,19.51,9.94l18.25,125.3,62.78-9.16-4.08-28A17.07,17.07,0,0,1,290,194.51Z"/><path class="cls-1" d="M417.76,166.21l-12.1-83a9.83,9.83,0,0,1,.17-4,17.26,17.26,0,0,0-4.3,4.37,10.26,10.26,0,0,0-1.86,7.62l12.1,83a12.9,12.9,0,0,0,6.15,8.8,17.33,17.33,0,0,0,7.46,2.62l3.05,21,7-1-4.09-28A17.25,17.25,0,0,1,423.9,175,12.85,12.85,0,0,1,417.76,166.21Z"/><path class="cls-1" d="M602.24,149a12.74,12.74,0,0,1-6.15-8.8L582.53,47.11c-2.19-13.9-10.68-23.72-24.6-28.38-10.85-3.66-24.7-4-39-1-11.56,2.42-29.67,8.12-44.11,16.34a41.12,41.12,0,0,0-16.37-5.25,67.05,67.05,0,0,0-20.8,1.1,89.84,89.84,0,0,0-33.68,14.24l-8,5.69-1.59-11-60.37,8.8,1,7,53.37-7.78,1.6,11,8-5.71a90.58,90.58,0,0,1,33.69-14.22,67.17,67.17,0,0,1,20.77-1.09,41.25,41.25,0,0,1,16.4,5.23c14.43-8.2,32.54-13.92,44.13-16.33,14.33-3,28.18-2.65,39,1,13.91,4.66,22.41,14.49,24.59,28.38l13.57,93.11a12.88,12.88,0,0,0,6.14,8.81,17.16,17.16,0,0,0,7.46,2.62l3,21,7-1-4.07-28A16.91,16.91,0,0,1,602.24,149Z"/><path class="cls-1" d="M506.92,153.22,494.87,70.39a9.28,9.28,0,0,1,.18-4,17.76,17.76,0,0,0-4.33,4.38,10.15,10.15,0,0,0-1.84,7.6l12.06,82.83a12.88,12.88,0,0,0,6.14,8.8,17.09,17.09,0,0,0,7.48,2.61l3,21,7-1-4.07-28a17.12,17.12,0,0,1-7.48-2.63A12.93,12.93,0,0,1,506.92,153.22Z"/><path class="cls-1" d="M105.56,211.69l-12.1-83a9.85,9.85,0,0,1,.19-4,17.46,17.46,0,0,0-4.31,4.37,10.22,10.22,0,0,0-1.86,7.62l12.1,83a12.83,12.83,0,0,0,6.14,8.8,17.16,17.16,0,0,0,7.46,2.62l3,21,7-1-4.08-28a17.12,17.12,0,0,1-7.46-2.62A12.81,12.81,0,0,1,105.56,211.69Z"/><path class="cls-1" d="M194.73,198.7l-12.06-82.81a9.53,9.53,0,0,1,.17-4,17.24,17.24,0,0,0-4.32,4.39,10.22,10.22,0,0,0-1.84,7.6l12.06,82.82a12.89,12.89,0,0,0,6.14,8.8,17,17,0,0,0,7.47,2.62l3.06,21,7-1-4.07-28a17.14,17.14,0,0,1-7.48-2.61A12.82,12.82,0,0,1,194.73,198.7Z"/><path class="cls-1" d="M283.89,185.71l-13.57-93.1c-2.18-13.92-10.68-23.72-24.59-28.4-10.84-3.63-24.7-4-39-1-11.58,2.4-29.67,8.12-44.11,16.34a41.42,41.42,0,0,0-16.41-5.26,67.51,67.51,0,0,0-20.77,1.1A90,90,0,0,0,91.74,89.64l-8,5.71-1.59-11-60.37,8.8,1,7,53.37-7.77,1.58,11,8-5.69a90.17,90.17,0,0,1,33.68-14.24,66.92,66.92,0,0,1,20.78-1.09,41.36,41.36,0,0,1,16.39,5.23c14.45-8.2,32.54-13.9,44.11-16.32,14.34-3,28.19-2.65,39,1,13.91,4.66,22.42,14.48,24.58,28.38l13.57,93.12a12.81,12.81,0,0,0,6.15,8.79,16.87,16.87,0,0,0,7.45,2.62l3.05,21,7-1-4.08-28a17.07,17.07,0,0,1-7.46-2.62A12.81,12.81,0,0,1,283.89,185.71Z"/><path class="cls-6" d="M668.27,86.65C666.87,77,657.94,72,647,70.19c-4.75-.8-9.51-1.21-13.71-2-3-.68-6.62-1.49-7.31-5.07s2.3-7.38,9.09-8.12c8.5-.93,14,4.63,17,9.22l8.93-1.3L658,41.8l-11.71,1.6-1,1.68a43.08,43.08,0,0,0-15-.26C617.07,46.68,607,56,608.59,67.52c1.35,9.3,9.39,14,19.55,15.88,4.88.9,10.79,1.48,15.09,2.37,3,.7,6.79,1.62,7.52,5.43s-2.33,7.63-9.27,8.59c-8.62,1.19-14.28-5-18-10l-9.38,1.28,3.18,21.8,13-1.89,1-1.93c3.61,1,13,2.2,21.12-.74C662.63,104.65,669.68,96.28,668.27,86.65Z"/><polygon class="cls-7" points="596.57 26.55 611.18 24.46 606.01 44.2 591.37 46.32 596.57 26.55 596.57 26.55"/><path class="cls-1" d="M344.85,147.27l-13.71-10.5c-1.26,1.13-2.57,2.24-3.93,3.29l15.34,11.76C343.43,150.33,344.14,148.79,344.85,147.27Z"/><path class="cls-1" d="M318.15,172c4.75-.67,9.36-3.16,13.56-6.77l-1.22-.94a23.93,23.93,0,0,1-9.35,3.69c-7.56,1.08-14.22-1.63-15.22-8.31a6.58,6.58,0,0,1,.8-3.82c-2.68,2.76-4.15,5.35-3.79,7.84C303.93,170.34,310.59,173,318.15,172Z"/><path class="cls-1" d="M310.91,99.31c16.32-2.29,28.68,5.55,30.35,16.71a18.05,18.05,0,0,1-2.92,12.56c4.21-4.8,6.86-10.2,5.91-16.57-1.67-11.17-14-19-30.33-16.71-10.32,1.47-17.44,6.59-20.93,12.76C297,103.77,303,100.43,310.91,99.31Z"/><path class="cls-1" d="M351,135.07c-.34,1.25-.86,2.51-1.33,3.78l19.13-2.8,1.46,10,3.5-.51-2-13.54Z"/><path class="cls-1" d="M360,158.85a54.73,54.73,0,0,0,4.34-8.32l-1.51.22c-.36,1.05-.77,2.07-1.16,3.1a57.07,57.07,0,0,1-4.66,9l4.44,3.41,11.48-1.68,1.45,9.89,3.5-.51-1.95-13.4-11.49,1.68Z"/><path class="cls-1" d="M304.8,120.62c.46,3.15,5.86,6.95,9.27,9.45,4.32-2.85,7.94-5.73,9.33-8.9a45,45,0,0,1-6.34,4.88c-3.41-2.49-8.81-6.3-9.27-9.44a7,7,0,0,1,.28-3.32A7.71,7.71,0,0,0,304.8,120.62Z"/><path class="cls-1" d="M627.33,48.85a42,42,0,0,1,15,.25l1-1.68L655,45.81l2.56,17.57,3.5-.5L658,41.8l-11.71,1.6-1,1.68a43.08,43.08,0,0,0-15-.26C621.63,46,614.39,50.5,610.8,56.65A28.71,28.71,0,0,1,627.33,48.85Z"/><path class="cls-1" d="M647,70.19c-4.75-.8-9.51-1.21-13.71-2-3-.68-6.62-1.49-7.31-5.07a5.48,5.48,0,0,1,.13-2c-2.37,1.63-3.52,3.86-3.12,6,.68,3.58,4.34,4.4,7.3,5.06,4.2.85,9,1.26,13.71,2,10.91,1.87,19.87,6.84,21.27,16.48a16.66,16.66,0,0,1-2.07,10.7c3.81-4,5.87-9.15,5-14.71C666.87,77,657.94,72,647,70.19Z"/><path class="cls-1" d="M623.48,89.8l-9.38,1.28.52,3.53,5.87-.81c3.73,5,9.39,11.2,18,10,5.53-.77,8.47-3.45,9.11-6.36a13.3,13.3,0,0,1-6.12,2.35C632.86,101,627.2,94.77,623.48,89.8Z"/><polygon class="cls-1" points="596.57 26.55 595.58 30.28 608.2 28.47 604 44.49 606.01 44.2 611.18 24.46 596.57 26.55"/><path class="cls-8" d="M631,31.43c-5.3.74-10.54-2.27-11.43-8.58s3.29-10.63,8.6-11.36a9.76,9.76,0,0,1,11.4,8.58A9.7,9.7,0,0,1,631,31.43Zm-2.5-17.63c-4,.55-6.72,4.06-6.07,8.65s4.29,7.24,8.24,6.66v0c3.85-.54,6.68-4.08,6-8.67S632.38,13.27,628.54,13.8Zm.18,13.25-2.3.31L624.9,16.62l4-.55c2.77-.39,4.51.18,4.86,2.63a2.53,2.53,0,0,1-2.19,3.16L635,26.17l-2.72.38-3.11-4.17-1.08.16Zm1.13-6.62c1-.14,1.61-.44,1.44-1.62s-1.36-1-2.23-.91l-1.61.23.37,2.58Z"/></svg>